<?xml version="1.0" standalone="no"?>
<!DOCTYPE svg PUBLIC "-//W3C//DTD SVG 20010904//EN"
 "http://www.w3.org/TR/2001/REC-SVG-20010904/DTD/svg10.dtd">
<svg version="1.0" xmlns="http://www.w3.org/2000/svg"
 width="384.000000pt" height="384.000000pt" viewBox="0 0 384.000000 384.000000"
 preserveAspectRatio="xMidYMid meet">
<metadata>
Created by potrace 1.14, written by Peter Selinger 2001-2017
</metadata>
<g transform="translate(0.000000,384.000000) scale(0.100000,-0.100000)"
fill="#000000" stroke="none">
<path d="M1583 3280 c-13 -5 -28 -28 -41 -62 -48 -132 -482 -1446 -482 -1461
0 -10 11 -29 25 -42 24 -25 25 -25 225 -25 113 0 200 -4 200 -9 0 -5 -79 -197
-176 -428 -267 -634 -255 -597 -202 -636 25 -19 30 -19 56 -6 26 12 1489 1494
1557 1577 33 40 35 76 6 105 -21 21 -32 22 -267 27 l-245 5 252 390 c359 555
338 516 299 555 -20 20 -33 20 -602 19 -321 0 -593 -4 -605 -9z"/>
</g>
</svg>
